# xmcd
#
# Track frame offsets:
#	150
#	19411
#	40077
#	60947
#	80135
#	93600
#	110641
#	129905
#	147043
#
# Disc length: 2168 seconds
#
# Revision: 4
# Processed by: cddbd v1.5.2PL0 Copyright (c) Steve Scherf et al.
# Submitted via: EZCDAudioConverter 5.0.5.1
#
DISCID=74087609
DTITLE=Charles Kelley - The Driver
DYEAR=2016
DGENRE=Country
TTITLE0=Your Love
TTITLE1=The Driver ( feat. Dierks Bentley and Eric Paslay )
TTITLE2=Dancing Around It
TTITLE3=Southern Accents ( feat. Stevie Nicks )
TTITLE4=Lonely Girl
TTITLE5=The Only One Who Gets Me
TTITLE6=Round In Circles
TTITLE7=I Wish You Were Here ( feat. Miranda Lambert )
TTITLE8=Leaving Nashville
EXTD=
EXTT0=
EXTT1=
EXTT2=
EXTT3=
EXTT4=
EXTT5=
EXTT6=
EXTT7=
EXTT8=
PLAYORDER=
